<svg width="44" height="44" viewBox="0 0 44 44" fill="none" xmlns="http://www.w3.org/2000/svg">
<path d="M22.1149 40.0933C31.9723 40.0933 39.9632 32.1024 39.9632 22.245C39.9632 12.3877 31.9723 4.39673 22.1149 4.39673C12.2576 4.39673 4.2666 12.3877 4.2666 22.245C4.2666 32.1024 12.2576 40.0933 22.1149 40.0933Z" stroke="#EC3235" stroke-width="3.56966" stroke-linecap="round" stroke-linejoin="round"/>
<path d="M22.115 32.9541C28.0294 32.9541 32.824 28.1595 32.824 22.2451C32.824 16.3307 28.0294 11.5361 22.115 11.5361C16.2006 11.5361 11.406 16.3307 11.406 22.2451C11.406 28.1595 16.2006 32.9541 22.115 32.9541Z" stroke="#EC3235" stroke-width="3.56966" stroke-linecap="round" stroke-linejoin="round"/>
<path d="M22.1151 25.8149C24.0865 25.8149 25.6847 24.2167 25.6847 22.2452C25.6847 20.2737 24.0865 18.6755 22.1151 18.6755C20.1436 18.6755 18.5454 20.2737 18.5454 22.2452C18.5454 24.2167 20.1436 25.8149 22.1151 25.8149Z" stroke="#EC3235" stroke-width="3.56966" stroke-linecap="round" stroke-linejoin="round"/>
</svg>
