<?xml version="1.0" encoding="utf-8"?>
<!-- Generator: Adobe Illustrator 26.0.1, SVG Export Plug-In . SVG Version: 6.00 Build 0)  -->
<svg version="1.1" id="Layer_1" xmlns="http://www.w3.org/2000/svg" xmlns:xlink="http://www.w3.org/1999/xlink" x="0px" y="0px"
	 viewBox="0 0 49.7 188.6" style="enable-background:new 0 0 49.7 188.6;" xml:space="preserve">
<path d="M26.7,185.7l22.7-34.8c0.6-0.9,0.3-2.2-0.6-2.8c-0.9-0.6-2.2-0.3-2.8,0.6l-19,29.2V2c0-1.1-0.9-2-2-2c-0.1,0-0.1,0-0.2,0
	c-0.1,0-0.1,0-0.2,0c-1.1,0-2,0.9-2,2v175.9l-19-29.2c-0.6-0.9-1.8-1.2-2.8-0.6c-0.6,0.4-0.9,1-0.9,1.7c0,0.4,0.1,0.8,0.3,1.1
	L23,185.7l1.8,2.8L26.7,185.7z"/>
</svg>
