<?xml version="1.0" encoding="utf-8"?>
<!-- Generator: Adobe Illustrator 26.0.1, SVG Export Plug-In . SVG Version: 6.00 Build 0)  -->
<svg version="1.1" id="Layer_1" xmlns="http://www.w3.org/2000/svg" xmlns:xlink="http://www.w3.org/1999/xlink" x="0px" y="0px"
	 viewBox="0 0 32 27.6" style="enable-background:new 0 0 32 27.6;" xml:space="preserve">
<style type="text/css">
	.st0{font-family:'BaskOldFace';}
	.st1{font-size:5.4858px;}
	.st2{font-size:5.5034px;}
	.st3{font-size:5.4927px;}
	.st4{font-size:5.4869px;}
	.st5{font-size:5.496px;}
	.st6{font-size:5.4729px;}
</style>
<text transform="matrix(0.1657 -0.9862 0.9862 0.1657 4.2517 16.0555)" class="st0 st1">G</text>
<text transform="matrix(0.3987 -0.9171 0.9171 0.3987 5.0045 12.2286)" class="st0 st2">r</text>
<text transform="matrix(0.5593 -0.829 0.829 0.5593 5.671 10.6047)" class="st0 st3">e</text>
<text transform="matrix(0.7087 -0.7055 0.7055 0.7087 6.9356 8.6842)" class="st0 st1">e</text>
<text transform="matrix(0.8426 -0.5385 0.5385 0.8426 8.5331 7.0368)" class="st0 st1">n</text>
<text transform="matrix(0.9594 -0.2822 0.2822 0.9594 12.0002 5.1305)" class="st0 st1">-</text>
<text transform="matrix(0.9998 -1.999600e-02 1.999600e-02 0.9998 14.4283 4.4958)" class="st0 st4">S</text>
<text transform="matrix(0.9594 0.2822 -0.2822 0.9594 17.0395 4.3155)" class="st0 st1">m</text>
<text transform="matrix(0.8477 0.5305 -0.5305 0.8477 20.9867 5.5895)" class="st0 st1">a</text>
<text transform="matrix(0.745 0.6671 -0.6671 0.745 22.8383 6.7579)" class="st0 st1">r</text>
<text transform="matrix(0.6494 0.7604 -0.7604 0.6494 24.1668 7.9547)" class="st0 st1">t</text>
<text transform="matrix(0.4592 0.8884 -0.8884 0.4592 25.7433 10.0092)" class="st0 st5">-</text>
<text transform="matrix(0.179 0.9839 -0.9839 0.179 26.8858 12.2291)" class="st0 st1">L</text>
<text transform="matrix(-6.644800e-02 0.9978 -0.9978 -6.644800e-02 27.4377 15.3115)" class="st0 st1">u</text>
<text transform="matrix(-0.28 0.96 -0.96 -0.28 27.2652 17.9295)" class="st0 st1">x</text>
<text transform="matrix(-0.4711 0.8821 -0.8821 -0.4711 26.6782 20.1164)" class="st0 st6">u</text>
<text transform="matrix(-0.6307 0.776 -0.776 -0.6307 25.4056 22.4283)" class="st0 st1">r</text>
<text transform="matrix(-0.7522 0.659 -0.659 -0.7522 24.3165 23.8142)" class="st0 st1">y</text>
</svg>
