<svg width="194" height="195" viewBox="0 0 194 195" fill="none" xmlns="http://www.w3.org/2000/svg">
<path opacity="0.5" d="M71.6455 97.3753C71.6447 92.4064 73.1154 87.5488 75.8714 83.4169C78.6275 79.285 82.5452 76.0645 87.1291 74.1625C91.713 72.2606 96.757 71.7628 101.623 72.732C106.49 73.7012 110.96 76.0939 114.468 79.6075C117.977 83.1211 120.366 87.5977 121.334 92.4713C122.302 97.3448 121.805 102.396 119.905 106.987C118.006 111.577 114.79 115.501 110.665 118.261C106.539 121.021 101.688 122.494 96.7266 122.493C90.0747 122.493 83.6952 119.847 78.9916 115.136C74.288 110.426 71.6455 104.037 71.6455 97.3753Z" stroke="#7C99FF" stroke-width="0.800673" stroke-miterlimit="10"/>
<path opacity="0.5" d="M127.985 97.3753C127.991 103.568 126.163 109.624 122.732 114.776C119.302 119.928 114.422 123.945 108.711 126.319C103 128.694 96.7136 129.318 90.648 128.114C84.5824 126.91 79.0097 123.931 74.6349 119.554C70.2602 115.177 67.28 109.6 66.0712 103.526C64.8625 97.4531 65.4797 91.1572 67.8446 85.4353C70.2095 79.7133 74.216 74.8224 79.3571 71.3812C84.4981 67.9401 90.5429 66.1033 96.7265 66.1033C105.011 66.1033 112.957 69.397 118.818 75.2607C124.679 81.1245 127.976 89.0785 127.985 97.3753V97.3753Z" stroke="#7C99FF" stroke-width="0.720606" stroke-miterlimit="10"/>
<path opacity="0.5" d="M134.154 97.3753C134.154 104.789 131.959 112.035 127.847 118.199C123.734 124.363 117.889 129.168 111.05 132.004C104.211 134.841 96.6853 135.584 89.4251 134.137C82.1648 132.691 75.4959 129.121 70.2616 123.879C65.0273 118.637 61.4626 111.959 60.0185 104.688C58.5743 97.4169 59.3155 89.8805 62.1483 83.0315C64.9811 76.1825 69.7783 70.3286 75.9332 66.2099C82.0881 62.0913 89.3244 59.893 96.7268 59.893C106.653 59.893 116.173 63.842 123.192 70.8713C130.211 77.9006 134.154 87.4344 134.154 97.3753V97.3753Z" stroke="#7C99FF" stroke-width="0.636535" stroke-miterlimit="10"/>
<path opacity="0.5" d="M139.506 105.72C144.113 82.0501 128.687 59.1217 105.052 54.5079C81.4172 49.8941 58.5223 65.342 53.9153 89.0118C49.3082 112.682 64.7336 135.61 88.3687 140.224C112.004 144.838 134.899 129.39 139.506 105.72Z" stroke="#7C99FF" stroke-width="0.556468" stroke-miterlimit="10"/>
<path opacity="0.5" d="M145.875 105.387C150.279 78.2129 131.853 52.6083 104.719 48.1974C77.5849 43.7864 52.0177 62.2395 47.6132 89.4134C43.2087 116.587 61.6348 142.192 88.769 146.603C115.903 151.014 141.47 132.561 145.875 105.387Z" stroke="#7C99FF" stroke-width="0.472397" stroke-miterlimit="10"/>
<path opacity="0.5" d="M152.938 106.536C156.955 75.9017 135.413 47.8065 104.823 43.7838C74.2338 39.761 46.1796 61.3342 42.1628 91.9687C38.1459 122.603 59.6875 150.698 90.2772 154.721C120.867 158.744 148.921 137.171 152.938 106.536Z" stroke="#7C99FF" stroke-width="0.391741" stroke-miterlimit="10"/>
<path opacity="0.5" d="M158.592 102.789C161.582 68.564 136.301 38.3914 102.126 35.3971C67.9506 32.4028 37.8222 57.7205 34.8322 91.9459C31.8423 126.171 57.123 156.344 91.2983 159.338C125.474 162.332 155.602 137.015 158.592 102.789Z" stroke="#7C99FF" stroke-width="0.312263" stroke-miterlimit="10"/>
<path opacity="0.5" d="M145.016 145.746C171.684 119.038 171.684 75.7361 145.016 49.0283C118.347 22.3206 75.1085 22.3206 48.4398 49.0283C21.7711 75.7361 21.7711 119.038 48.4398 145.746C75.1085 172.453 118.347 172.453 145.016 145.746Z" stroke="#7C99FF" stroke-width="0.228192" stroke-miterlimit="10"/>
<path opacity="0.5" d="M96.7268 171.959C137.851 171.959 171.189 138.572 171.189 97.3874C171.189 56.2025 137.851 22.8156 96.7268 22.8156C55.6022 22.8156 22.2642 56.2025 22.2642 97.3874C22.2642 138.572 55.6022 171.959 96.7268 171.959Z" stroke="#7C99FF" stroke-width="0.148125" stroke-miterlimit="10"/>
</svg>
